<?xml version="1.0" standalone="no"?>
<!DOCTYPE svg PUBLIC "-//W3C//DTD SVG 20010904//EN"
 "http://www.w3.org/TR/2001/REC-SVG-20010904/DTD/svg10.dtd">
<svg version="1.0" xmlns="http://www.w3.org/2000/svg"
 width="76.000000pt" height="121.000000pt" viewBox="0 0 76.000000 121.000000"
 preserveAspectRatio="xMidYMid meet">
<metadata>
Created by potrace 1.15, written by Peter Selinger 2001-2017
</metadata>
<g transform="translate(0.000000,121.000000) scale(0.100000,-0.100000)"
fill="#000000" stroke="none">
<path d="M0 605 l0 -605 380 0 380 0 0 605 0 605 -380 0 -380 0 0 -605z m96
88 c7 -29 41 -147 51 -173 5 -14 26 45 39 110 11 54 26 90 39 90 24 0 23 -13
-7 -115 -16 -55 -35 -122 -42 -150 -7 -30 -17 -51 -27 -53 -9 -1 -16 3 -17 10
0 7 -17 67 -36 133 -49 164 -51 175 -26 175 13 0 22 -9 26 -27z m357 13 c7
-20 9 -135 2 -156 -5 -17 -15 -20 -66 -20 l-59 0 0 -65 c0 -58 -2 -65 -20 -65
-19 0 -20 7 -20 161 l0 160 79 -2 c48 -1 82 -6 84 -13z m222 -30 c0 -23 -5
-41 -12 -43 -7 -3 -13 2 -13 11 0 13 -11 16 -50 16 l-50 0 0 -36 0 -35 60 2
c33 1 63 -1 68 -5 4 -4 7 -40 7 -80 0 -95 -9 -106 -87 -106 -70 0 -91 15 -86
62 3 32 28 53 28 24 0 -13 11 -16 55 -16 l55 0 0 35 0 35 -60 0 c-71 0 -75 6
-75 90 1 90 3 92 87 88 l73 -3 0 -39z"/>
</g>
</svg>
